<svg width="191" height="60" viewBox="0 0 191 60" fill="none" xmlns="http://www.w3.org/2000/svg">
<path d="M17.7163 -9.05991e-05C21.0016 0.0585753 23.8763 0.821241 26.3403 2.28791C28.8043 3.75457 30.6816 5.71991 31.9723 8.18391C33.3216 10.6479 33.9963 13.4346 33.9963 16.5439C33.9963 18.8319 33.5563 21.0026 32.6763 23.0559C31.8549 25.0506 30.7109 26.8399 29.2443 28.4239C31.3563 30.0079 32.9989 31.9732 34.1723 34.3199C35.4043 36.6666 36.0203 39.2479 36.0203 42.0639C36.0203 45.0559 35.2869 47.8132 33.8203 50.3359C32.3536 52.8586 30.3883 54.8826 27.9243 56.4079C25.4603 57.8746 22.7323 58.6079 19.7403 58.6079H0.55625V-9.05991e-05H17.7163ZM8.30025 7.91991V25.3439H17.7163C20.1216 25.3439 22.1456 24.4932 23.7883 22.7919C25.4309 21.0906 26.2523 19.0079 26.2523 16.5439C26.2523 14.0799 25.4309 12.0266 23.7883 10.3839C22.2043 8.74124 20.1803 7.91991 17.7163 7.91991H8.30025ZM8.30025 33.2639V50.6879H19.7403C22.1456 50.6879 24.1696 49.8666 25.8123 48.2239C27.4549 46.5226 28.2763 44.4692 28.2763 42.0639C28.2763 39.5999 27.4549 37.5172 25.8123 35.8159C24.1696 34.1146 22.1456 33.2639 19.7403 33.2639H8.30025ZM65.3387 59.0479C62.3467 59.0479 59.5014 58.4612 56.8027 57.2879C54.104 56.1146 51.728 54.5012 49.6747 52.4479C47.6214 50.3946 46.008 48.0186 44.8347 45.3199C43.6614 42.6212 43.0747 39.7759 43.0747 36.7839C43.0747 33.7332 43.6614 30.8292 44.8347 28.0719C46.008 25.3146 47.6214 22.9092 49.6747 20.8559C51.728 18.8026 54.104 17.2186 56.8027 16.1039C59.5014 14.9306 62.3467 14.3439 65.3387 14.3439C68.3894 14.3439 71.2934 14.9306 74.0507 16.1039C76.808 17.2186 79.2134 18.8026 81.2667 20.8559C83.32 22.9092 84.904 25.3146 86.0187 28.0719C87.192 30.8292 87.7787 33.7332 87.7787 36.7839C87.7787 39.7759 87.192 42.6212 86.0187 45.3199C84.904 48.0186 83.32 50.3946 81.2667 52.4479C79.2134 54.5012 76.808 56.1146 74.0507 57.2879C71.2934 58.4612 68.3894 59.0479 65.3387 59.0479ZM65.3387 22.1759C61.408 22.1759 58.0347 23.5839 55.2187 26.3999C53.8694 27.7492 52.8134 29.3332 52.0507 31.1519C51.288 32.9706 50.9067 34.8479 50.9067 36.7839C50.9067 38.7199 51.288 40.5679 52.0507 42.3279C52.8134 44.0879 53.8694 45.6426 55.2187 46.9919C56.568 48.3412 58.0934 49.3972 59.7947 50.1599C61.5547 50.9226 63.4027 51.3039 65.3387 51.3039C67.2747 51.3039 69.152 50.9226 70.9707 50.1599C72.7894 49.3972 74.344 48.3412 75.6347 46.9919C76.9254 45.6426 77.952 44.0879 78.7147 42.3279C79.4774 40.5679 79.8587 38.7199 79.8587 36.7839C79.8587 34.8479 79.4774 32.9706 78.7147 31.1519C77.952 29.3332 76.9254 27.7492 75.6347 26.3999C74.344 25.0506 72.7894 24.0239 70.9707 23.3199C69.2107 22.5572 67.3334 22.1759 65.3387 22.1759ZM115.354 59.0479C112.362 59.0479 109.517 58.4612 106.818 57.2879C104.12 56.1146 101.744 54.5012 99.6903 52.4479C97.637 50.3946 96.0236 48.0186 94.8503 45.3199C93.677 42.6212 93.0903 39.7759 93.0903 36.7839C93.0903 33.7332 93.677 30.8292 94.8503 28.0719C96.0236 25.3146 97.637 22.9092 99.6903 20.8559C101.744 18.8026 104.12 17.2186 106.818 16.1039C109.517 14.9306 112.362 14.3439 115.354 14.3439C118.405 14.3439 121.309 14.9306 124.066 16.1039C126.824 17.2186 129.229 18.8026 131.282 20.8559C133.336 22.9092 134.92 25.3146 136.034 28.0719C137.208 30.8292 137.794 33.7332 137.794 36.7839C137.794 39.7759 137.208 42.6212 136.034 45.3199C134.92 48.0186 133.336 50.3946 131.282 52.4479C129.229 54.5012 126.824 56.1146 124.066 57.2879C121.309 58.4612 118.405 59.0479 115.354 59.0479ZM115.354 22.1759C111.424 22.1759 108.05 23.5839 105.234 26.3999C103.885 27.7492 102.829 29.3332 102.066 31.1519C101.304 32.9706 100.922 34.8479 100.922 36.7839C100.922 38.7199 101.304 40.5679 102.066 42.3279C102.829 44.0879 103.885 45.6426 105.234 46.9919C106.584 48.3412 108.109 49.3972 109.81 50.1599C111.57 50.9226 113.418 51.3039 115.354 51.3039C117.29 51.3039 119.168 50.9226 120.986 50.1599C122.805 49.3972 124.36 48.3412 125.65 46.9919C126.941 45.6426 127.968 44.0879 128.73 42.3279C129.493 40.5679 129.874 38.7199 129.874 36.7839C129.874 34.8479 129.493 32.9706 128.73 31.1519C127.968 29.3332 126.941 27.7492 125.65 26.3999C124.36 25.0506 122.805 24.0239 120.986 23.3199C119.226 22.5572 117.349 22.1759 115.354 22.1759ZM166.825 58.6079L153.449 42.3279V58.6079H145.705V0.0879083H153.449V25.3439L165.417 14.0799H176.945L156.089 33.4399L177.033 58.6079H166.825ZM186.362 8.27191C185.247 8.27191 184.279 7.89057 183.458 7.12791C182.695 6.30657 182.314 5.33857 182.314 4.22391C182.314 3.10924 182.695 2.17057 183.458 1.40791C184.279 0.586574 185.247 0.175907 186.362 0.175907C187.477 0.175907 188.415 0.586574 189.178 1.40791C189.999 2.17057 190.41 3.10924 190.41 4.22391C190.41 5.33857 189.999 6.30657 189.178 7.12791C188.415 7.89057 187.477 8.27191 186.362 8.27191ZM182.754 58.6079V14.6079H190.146V58.6079H182.754Z" fill="#0065FC"/>
</svg>
