<svg width="18" height="15" viewBox="0 0 18 15" fill="none" xmlns="http://www.w3.org/2000/svg">
<path d="M2.25 11.8118C2.25 12.0942 2.50172 12.3253 2.8125 12.3253H16.875C17.4973 12.3253 18 12.7843 18 13.3524C18 13.9205 17.4973 14.3795 16.875 14.3795H2.8125C1.2593 14.3795 0 13.2304 0 11.8118V1.02711C0 0.459952 0.503789 0 1.125 0C1.74621 0 2.25 0.459952 2.25 1.02711V11.8118ZM12.0445 7.91516C11.6051 8.31637 10.8949 8.31637 10.4555 7.91516L8.4375 6.07599L5.29453 8.94227C4.85508 9.34348 4.14492 9.34348 3.70547 8.94227C3.26531 8.54105 3.26531 7.89269 3.70547 7.49147L7.64297 3.89659C8.08242 3.49538 8.79258 3.49538 9.23203 3.89659L11.25 5.73576L14.9555 2.35593C15.3949 1.95407 16.1051 1.95407 16.5445 2.35593C16.984 2.75715 16.984 3.40551 16.5445 3.80672L12.0445 7.91516Z" fill="#0065FC"/>
</svg>
